<svg width="180" height="180" viewBox="0 0 180 180" fill="none" xmlns="http://www.w3.org/2000/svg">
<g opacity="0.5">
<path d="M138.6 76.3522C138.6 76.3522 148.289 47.6818 114.492 51.181C80.6957 54.6802 96.8435 41.9902 84.0725 34.1152C71.3015 26.2402 33.6725 50.74 49.4153 74.3704C65.1581 98.0008 24.2567 76.3846 15.7247 111.92C10.4597 133.85 23.5223 149.99 34.2989 159.14" stroke="#000080" stroke-width="1.06337" stroke-miterlimit="10"/>
<path d="M31.0032 131.742C33.543 117.035 42.5358 103.873 57.1464 99.1624C60.8839 97.9641 64.7059 97.0465 68.58 96.4174V96.4372C68.782 97.6581 69.2604 98.8169 69.9786 99.8248C71.5014 101.911 73.6002 103.625 76.0302 104.517C78.5106 105.435 81.5832 105.554 83.8854 104.111C85.2714 103.243 86.616 101.715 86.859 100.066C87.1362 98.2084 86.1894 96.4498 84.8574 95.2222C96.147 95.314 106.767 97.1716 115.277 99.2866C114.982 100.522 114.574 101.727 114.057 102.887C113.334 104.503 112.311 105.969 111.044 107.207C109.463 105.64 108.079 103.888 106.922 101.987C105.815 102.349 104.839 103.028 104.116 103.941C103.392 104.853 102.953 105.958 102.852 107.118V107.178C102.406 111.392 106.463 114.558 109.872 116.505C113.81 118.77 118.201 120.465 122.513 121.875C124.292 122.458 126.603 122.955 128.48 122.346C128.683 122.282 128.88 122.203 129.071 122.111C130.943 121.193 132.196 119.268 133.173 117.51C135.958 112.515 137.768 107.07 138.996 101.481C147.515 102.57 148.491 96.8008 148.997 95.386L156.285 115.76C156.667 117.225 156.709 118.757 156.406 120.24C156.103 121.723 155.464 123.117 154.539 124.315C153.613 125.512 152.425 126.482 151.066 127.148C149.707 127.815 148.214 128.161 146.7 128.16H116.528L102.823 163.314L98.9388 173.292H76.752C78.552 173.292 79.5366 172.853 80.2512 172.136C80.9892 171.398 81.4047 170.397 81.4068 169.353C81.4068 167.193 79.6338 165.422 76.752 165.422H76.5486C76.7664 165.422 76.9752 165.402 77.193 165.383C77.058 165.368 76.9241 165.346 76.7916 165.316C76.9344 165.313 77.0768 165.302 77.2182 165.284C75.9184 165.13 74.7139 164.525 73.8153 163.573C72.9168 162.622 72.3813 161.384 72.3024 160.078C72.2988 160.01 72.2988 159.942 72.3024 159.875V159.77C72.3334 158.431 72.8455 157.147 73.7446 156.154C74.6439 155.161 75.8706 154.525 77.2002 154.361C77.049 154.349 76.905 154.336 76.7592 154.336C76.8906 154.304 77.0364 154.284 77.1732 154.264C76.9572 154.244 76.7394 154.23 76.5306 154.23L60.2982 154.316L57.312 154.329H53.7678C53.604 154.329 53.4384 154.329 53.2818 154.349L48.0168 154.376L44.4996 154.395C43.0296 154.408 41.6245 155.002 40.5913 156.047C39.5581 157.093 38.981 158.505 38.9862 159.975C38.988 160.807 39.1808 161.626 39.5496 162.371C38.0405 162.178 36.6412 161.48 35.5788 160.391C33.0462 157.805 31.9554 153.933 31.2012 150.491C29.8674 144.36 29.9466 137.9 31.0032 131.742ZM72.0144 132.156C75.0726 136.863 80.28 136.44 80.28 136.44C80.28 136.44 80.712 136.862 81.72 135.069C82.728 133.276 85.599 132.05 85.599 132.05C85.8276 133.85 86.301 136.586 90.999 133.04C95.697 129.494 94.2804 124.325 93.879 121.594C93.4776 118.863 91.8774 117.958 91.8774 117.958L89.9874 116.961C89.9874 116.961 95.454 115.555 95.7168 115.503C95.9796 115.451 100.849 111.374 95.9076 110.297C90.9666 109.221 83.2644 113.501 81.7758 114.347C80.2872 115.193 71.5878 122.552 71.5878 122.552C71.5878 122.552 68.94 127.457 72.0144 132.156Z" fill="#E8E9ED"/>
<path d="M139.003 101.484C139.003 101.484 134.883 100.984 133.34 98.0425L134.685 105.586C134.685 105.586 118.294 100.006 115.288 99.2863C115.288 99.2863 114.32 105.53 110.464 107.206L106.486 102.148C106.486 102.148 101.498 103.408 102.863 110.205C104.227 117.002 123.098 122.683 126.299 122.551C129.499 122.42 132.944 120.451 136.472 109.868L139.003 101.484Z" fill="#E8E9ED"/>
<path d="M132.291 84.6794C131.247 86.3786 130.198 88.0742 129.114 89.7482C128.446 90.7796 127.229 92.2502 128.524 93.3284C128.945 93.6514 129.453 93.8396 129.983 93.8684C130.815 93.9422 131.688 93.7424 132.194 93.0278L134.714 88.8518C135.216 88.019 136.014 87.4059 136.947 87.1343C137.881 86.8628 138.883 86.953 139.754 87.3866" stroke="black" stroke-width="1.06337" stroke-miterlimit="10"/>
<path d="M122.76 90.1795C122.101 91.7455 122.547 92.7553 123.318 93.2629C124.578 94.0891 126.264 93.6931 127.157 92.4871L132.282 84.6877" stroke="black" stroke-width="1.06337" stroke-miterlimit="10"/>
<path d="M127.953 82.4115C126.088 84.6795 123.736 88.8915 122.434 90.6501C121.133 92.4087 119.12 91.3485 119.12 91.3485C117.486 90.4683 117.763 89.0085 118.478 87.2355C120.238 82.8831 122.751 79.9887 125.554 78.0915C134.239 72.2163 143.149 76.5507 145.8 86.6919L156.285 115.76C156.667 117.225 156.709 118.757 156.406 120.24C156.103 121.723 155.464 123.117 154.539 124.315C153.613 125.512 152.425 126.482 151.066 127.148C149.707 127.815 148.214 128.161 146.7 128.16H116.528L98.9334 173.293" stroke="black" stroke-width="1.06337" stroke-miterlimit="10"/>
<path d="M117.18 85.2391C115.02 84.4903 115.119 81.0451 118.184 79.8823C121.57 78.5971 127.582 76.7791 129.092 76.3255C129.102 76.3183 129.113 76.3139 129.125 76.3129C129.231 76.2805 129.305 76.2535 129.362 76.2409L129.447 76.2139" stroke="black" stroke-width="1.06337" stroke-miterlimit="10"/>
<path d="M85.266 119.685C87.156 117.414 92.3292 116.127 95.706 115.504C96.2735 115.397 96.791 115.109 97.1807 114.683C97.5702 114.257 97.8107 113.716 97.866 113.141C97.9052 112.753 97.8604 112.361 97.7346 111.992C97.5333 111.426 97.1476 110.943 96.6395 110.622C96.1313 110.301 95.5299 110.16 94.932 110.221C89.172 110.804 83.232 112.617 78.8382 116.521C78.8382 116.521 57.5388 132.775 54.9954 134.357C53.946 134.994 52.9668 134.242 53.6778 133.241L53.901 132.86C55.1529 130.711 56.6346 128.705 58.32 126.876" stroke="black" stroke-width="1.06337" stroke-miterlimit="10"/>
<path d="M84.8716 95.22C111.659 95.4432 134.685 105.584 134.685 105.584L132.386 92.7" stroke="black" stroke-width="1.06337" stroke-miterlimit="10"/>
<path d="M43.2664 165.343C43.2664 165.343 46.1842 164.682 46.96 167.018C47.7358 169.355 48.5458 173.072 42.9676 173.291C37.3894 173.511 40.6654 172.415 40.9876 170.609C41.3098 168.804 43.2664 165.343 43.2664 165.343Z" fill="#E8E9ED"/>
<path d="M87.8398 122.65C87.8398 122.65 90.988 120.264 93.823 122.683C93.9423 122.788 94.0465 122.909 94.1326 123.043" stroke="black" stroke-width="1.06337" stroke-miterlimit="10"/>
<g opacity="0.77">
<path opacity="0.77" d="M127.168 92.4788C126.268 93.6866 124.583 94.0808 123.329 93.2528C122.567 92.7488 122.121 91.7444 122.764 90.1928C122.647 90.3638 122.54 90.515 122.436 90.6536C121.136 92.4194 119.122 91.3556 119.122 91.3556C117.488 90.4754 117.763 89.0156 118.478 87.2408C119.177 85.4829 120.094 83.8199 121.208 82.2908C120.479 81.6086 119.614 80.9192 118.701 81.2216C117.716 81.5492 117.441 82.784 117.329 83.8136C117.277 84.2924 117.225 84.7658 117.173 85.2446L116.384 92.2934C116.122 94.6334 115.859 97.0076 115.288 99.2918C114.993 100.527 114.585 101.732 114.068 102.892C113.344 104.509 112.322 105.974 111.055 107.212C109.474 105.646 108.089 103.893 106.933 101.992C105.826 102.354 104.85 103.034 104.126 103.946C103.403 104.859 102.963 105.963 102.863 107.124V107.183C102.416 111.397 106.474 114.563 109.883 116.511C113.821 118.775 118.211 120.471 122.524 121.88C124.303 122.463 126.614 122.96 128.491 122.352C128.693 122.287 128.891 122.208 129.082 122.116C130.954 121.198 132.206 119.274 133.184 117.515C137.864 109.1 139.808 99.4376 140.832 89.8688C138.784 89.5862 136.742 89.2712 134.726 88.8374C134.726 88.8374 134.726 88.8518 134.714 88.8572L132.39 92.711L132.199 93.0314C131.695 93.7514 130.822 93.944 129.989 93.872C129.459 93.8457 128.95 93.6573 128.531 93.332C127.238 92.252 128.452 90.7868 129.121 89.7554" fill="white"/>
<path opacity="0.77" d="M127.168 92.4788C126.268 93.6866 124.583 94.0808 123.329 93.2528C122.567 92.7488 122.121 91.7444 122.764 90.1928C122.647 90.3638 122.54 90.515 122.436 90.6536C121.136 92.4194 119.122 91.3556 119.122 91.3556C117.488 90.4754 117.763 89.0156 118.478 87.2408C119.177 85.4829 120.094 83.8199 121.208 82.2908C120.479 81.6086 119.614 80.9192 118.701 81.2216C117.716 81.5492 117.441 82.784 117.329 83.8136C117.277 84.2924 117.225 84.7658 117.173 85.2446L116.384 92.2934C116.122 94.6334 115.859 97.0076 115.288 99.2918C114.993 100.527 114.585 101.732 114.068 102.892C113.344 104.509 112.322 105.974 111.055 107.212C109.474 105.646 108.089 103.893 106.933 101.992C105.826 102.354 104.85 103.034 104.126 103.946C103.403 104.859 102.963 105.963 102.863 107.124V107.183C102.416 111.397 106.474 114.563 109.883 116.511C113.821 118.775 118.211 120.471 122.524 121.88C124.303 122.463 126.614 122.96 128.491 122.352C128.693 122.287 128.891 122.208 129.082 122.116C130.954 121.198 132.206 119.274 133.184 117.515C137.864 109.1 139.808 99.4376 140.832 89.8688C138.784 89.5862 136.742 89.2712 134.726 88.8374C134.726 88.8374 134.726 88.8518 134.714 88.8572L132.39 92.711L132.199 93.0314C131.695 93.7514 130.822 93.944 129.989 93.872C129.459 93.8457 128.95 93.6573 128.531 93.332C127.238 92.252 128.452 90.7868 129.121 89.7554" fill="#000080"/>
<path opacity="0.77" d="M126.616 93.0494C125.818 94.1294 124.456 93.9926 123.329 93.2528C122.649 92.8028 122.091 92.9342 122.665 91.5464C122.559 91.6976 122.544 91.1864 122.451 91.2998C121.29 92.8766 122.436 90.6482 122.436 90.6482C120.816 92.6948 117.29 90.767 117.936 89.1848C118.62 87.4802 119.34 84.9602 120.253 83.7002C119.533 83.0198 119.671 83.1206 118.755 83.6624C118.509 83.8204 118.303 84.0337 118.153 84.2852C118.004 84.5366 117.915 84.8194 117.893 85.1114C117.819 85.7972 117.745 86.4542 117.672 87.1238L116.97 93.4238C116.734 95.5172 116.5 97.6322 115.99 99.6698C115.727 100.772 115.362 101.847 114.9 102.881C114.255 104.305 112.185 106.675 111.055 107.761C109.649 106.366 107.964 103.801 106.933 102.096C104.953 102.705 105.039 104.598 104.899 106.666V106.72C104.499 110.481 108.121 113.305 111.156 115.045C114.673 117.067 118.591 118.579 122.442 119.839C124.029 120.361 126.092 120.811 127.768 120.26C127.949 120.203 128.125 120.132 128.295 120.049C129.966 119.229 131.085 117.513 131.958 115.942C135.78 109.078 137.553 101.286 138.528 93.4742C138.6 92.8896 138.442 92.3002 138.087 91.8301C137.732 91.3599 137.209 91.0458 136.627 90.9542C135.531 90.7742 134.439 90.5942 133.353 90.353L133.323 90.3674L131.249 93.8072C130.797 94.4462 130.723 93.9458 129.98 93.881C129.51 93.8396 128.599 93.7478 128.236 93.4436C127.082 92.4824 127.734 92.0846 128.331 91.1648" fill="#000080"/>
</g>
<path d="M88.2195 126.125C88.2195 126.125 94.1973 124.159 94.2873 127.464" stroke="black" stroke-width="1.06337" stroke-miterlimit="10"/>
<path opacity="0.54" d="M141.729 159.789L153.452 129.754C153.597 129.173 153.608 128.567 153.484 127.981C153.359 127.395 153.103 126.845 152.734 126.372C152.366 125.9 151.894 125.518 151.356 125.256C150.817 124.993 150.226 124.857 149.627 124.857H103.061C102.015 124.857 101 125.208 100.179 125.856C99.3576 126.503 98.7782 127.408 98.5339 128.424L85.6999 158.452C85.5611 159.031 85.5555 159.634 85.6833 160.216C85.8113 160.798 86.0693 161.343 86.4381 161.811C86.8069 162.279 87.2769 162.657 87.8128 162.917C88.3486 163.177 88.9365 163.312 89.5321 163.312H137.212C138.25 163.313 139.258 162.966 140.077 162.328C140.895 161.69 141.476 160.796 141.729 159.789Z" fill="white"/>
<path d="M86.274 131.191C86.274 131.191 85.3038 132.08 85.6728 133.351C85.9464 134.292 86.8824 134.886 87.8094 134.564C90.7614 133.543 93.42 131.81 94.068 128.863C94.3742 127.372 94.4405 125.84 94.2642 124.327C94.122 122.925 93.915 121.411 93.4434 120.078C92.7234 118.029 90.5184 116.602 88.3782 117.588" stroke="black" stroke-width="1.06337" stroke-miterlimit="10"/>
<path d="M141.729 159.789L153.452 129.754C153.597 129.173 153.608 128.567 153.484 127.981C153.359 127.395 153.103 126.845 152.734 126.372C152.366 125.9 151.894 125.518 151.356 125.256C150.817 124.993 150.226 124.857 149.627 124.857H103.061C102.015 124.857 101 125.208 100.179 125.856C99.3576 126.503 98.7782 127.408 98.5339 128.424L85.6999 158.452C85.5611 159.031 85.5555 159.634 85.6833 160.216C85.8113 160.798 86.0693 161.343 86.4381 161.811C86.8069 162.279 87.2769 162.657 87.8128 162.917C88.3486 163.177 88.9365 163.312 89.5321 163.312H137.212C138.25 163.313 139.258 162.966 140.077 162.328C140.895 161.69 141.476 160.796 141.729 159.789Z" fill="#000080"/>
<path d="M141.729 159.789L153.452 129.754C153.597 129.173 153.608 128.567 153.484 127.981C153.359 127.395 153.103 126.845 152.734 126.372C152.366 125.9 151.894 125.518 151.356 125.256C150.817 124.993 150.226 124.857 149.627 124.857H103.061C102.015 124.857 101 125.208 100.179 125.856C99.3576 126.503 98.7782 127.408 98.5339 128.424L85.6999 158.452C85.5611 159.031 85.5555 159.634 85.6833 160.216C85.8113 160.798 86.0693 161.343 86.4381 161.811C86.8069 162.279 87.2769 162.657 87.8128 162.917C88.3486 163.177 88.9365 163.312 89.5321 163.312H137.212C138.25 163.313 139.258 162.966 140.077 162.328C140.895 161.69 141.476 160.796 141.729 159.789Z" stroke="black" stroke-width="1.06337" stroke-linecap="square" stroke-linejoin="round"/>
<path d="M140.013 158.58L150.829 130.86C150.963 130.323 150.972 129.764 150.857 129.223C150.743 128.683 150.506 128.175 150.166 127.74C149.825 127.304 149.39 126.952 148.894 126.71C148.397 126.468 147.852 126.342 147.299 126.342H104.34C103.376 126.341 102.439 126.666 101.682 127.263C100.924 127.859 100.389 128.694 100.164 129.632L88.322 157.336C88.1942 157.87 88.1892 158.427 88.3072 158.964C88.4253 159.5 88.6636 160.003 89.004 160.435C89.3442 160.866 89.778 161.215 90.2725 161.455C90.7669 161.695 91.3095 161.82 91.859 161.82H135.847C136.803 161.82 137.732 161.502 138.487 160.915C139.241 160.328 139.778 159.506 140.013 158.58Z" fill="#000080"/>
<path d="M48.0744 154.231L39.8376 173.291" stroke="black" stroke-width="1.06337" stroke-miterlimit="10"/>
<path d="M85.6133 87.2656C86.9489 88.585 88.9433 88.5832 90.0791 87.3628" stroke="black" stroke-width="1.06337" stroke-miterlimit="10"/>
<path d="M121.208 82.285C120.479 81.6028 119.613 80.9134 118.701 81.2158C117.716 81.5434 117.441 82.7782 117.329 83.8078C117.014 86.6374 116.699 89.4641 116.384 92.2877C115.985 95.8877 115.563 99.5739 114.068 102.882C113.344 104.499 112.322 105.965 111.054 107.202" stroke="black" stroke-width="1.06337" stroke-miterlimit="10"/>
<path d="M102.862 107.181V107.122C102.963 105.961 103.403 104.856 104.126 103.944C104.85 103.032 105.826 102.352 106.932 101.99C108.089 103.891 109.473 105.644 111.054 107.21C115.199 111.331 120.524 114.061 126.289 115.02C126.012 116.123 125.442 117.128 125.047 118.19C124.653 119.252 124.457 120.481 124.936 121.505C125.541 122.812 127.276 122.641 128.482 122.351C128.494 122.351 128.502 122.351 128.514 122.351" stroke="black" stroke-width="1.06337" stroke-miterlimit="10"/>
<path d="M134.723 88.8357C136.739 89.2695 138.78 89.5845 140.828 89.8671C139.804 99.4359 137.867 109.098 133.18 117.513C132.203 119.272 130.95 121.196 129.078 122.114C128.887 122.207 128.69 122.286 128.488 122.35C126.61 122.967 124.299 122.461 122.521 121.878C118.201 120.467 113.818 118.773 109.879 116.509C106.479 114.559 102.422 111.395 102.859 107.181C102.901 106.717 102.996 106.26 103.142 105.817" stroke="black" stroke-width="1.06337" stroke-miterlimit="10"/>
<path d="M101.012 69.7479C100.71 71.0076 100.02 72.1405 99.0404 72.9872C98.0603 73.8341 96.8391 74.3518 95.5491 74.4675C95.442 73.9481 95.2096 73.4622 94.8723 73.0529C93.4323 71.3555 92.8185 74.5397 88.2123 72.2537C81.8295 69.0785 79.4067 70.9001 79.4067 70.9001C79.1943 71.0585 79.2267 72.5199 79.1907 72.7863C79.0107 74.3037 78.8487 75.8139 78.6705 77.3295C78.5625 78.2547 78.4563 79.1729 78.3555 80.0909C78.2685 79.9347 78.1724 79.7837 78.0675 79.6389C77.4861 77.5815 76.4475 75.1517 74.2083 76.1975C73.7549 76.4186 73.3601 76.7435 73.0563 77.1459C71.5713 79.0971 72.6963 80.9817 74.2497 82.3767C74.639 82.8096 75.0743 83.1988 75.5475 83.5379C75.2919 84.0671 74.2479 86.1677 74.2479 86.1749C74.1399 86.3873 70.4913 82.2579 70.2195 81.8079C69.8134 80.7056 69.5956 79.5428 69.5751 78.3683C69.5157 73.5389 71.4813 67.9173 75.3927 65.1471C76.3629 64.4613 76.0533 63.8007 76.1127 62.8683C76.1168 62.8179 76.1361 62.7701 76.1681 62.7308C76.2 62.6916 76.2432 62.663 76.2916 62.6487C76.3402 62.6345 76.3919 62.6354 76.4399 62.6511C76.488 62.6669 76.5301 62.6968 76.5609 62.7371C77.7867 64.1483 80.8215 64.0079 80.8215 64.0079C91.3551 61.3691 94.8957 66.0527 97.0215 66.8879C97.8889 67.2164 98.8436 67.2323 99.7215 66.9329C99.7731 67.2234 99.9033 67.4943 100.098 67.7165C100.292 67.9386 100.544 68.1033 100.825 68.1929L100.771 68.6805C100.725 69.0537 100.81 69.431 101.012 69.7479Z" fill="#000080"/>
<path d="M95.5422 74.4753C96.8323 74.3594 98.0534 73.8417 99.0335 72.995C100.014 72.1482 100.703 71.0151 101.005 69.7557C101.123 69.2726 101.198 68.7797 101.228 68.2833L101.146 68.2743C101.032 68.2658 100.921 68.2415 100.814 68.2023C100.533 68.1126 100.282 67.9479 100.087 67.7258C99.8928 67.5039 99.7627 67.2328 99.711 66.9423C99.6781 66.7812 99.6714 66.6158 99.6912 66.4527L99.9612 64.0695C99.9612 64.0695 98.0568 65.4861 95.9436 64.6581C93.8304 63.8301 90.2826 59.1465 79.7436 61.7781C79.7436 61.7781 77.364 61.9185 76.1436 60.5073C76.1128 60.467 76.0707 60.4371 76.0226 60.4214C75.9746 60.4056 75.9229 60.4048 75.8743 60.4191C75.8259 60.4333 75.7827 60.4619 75.7508 60.501C75.7188 60.5402 75.6995 60.5883 75.6954 60.6387C75.6324 61.5729 75.2868 62.2335 74.3148 62.9175C70.4034 65.6895 68.4378 71.3091 68.499 76.1385C68.517 78.1419 69.183 80.1201 70.2108 81.8175C70.4826 82.2675 74.1312 86.3967 74.2392 86.1843C74.2392 86.1843 75.2832 84.0765 75.5388 83.5473L75.6 83.4303L75.483 83.3529C75.0485 83.0578 74.6336 82.7349 74.241 82.3863C72.6894 80.9913 71.5626 79.1067 73.0476 77.1555C73.3516 76.753 73.7462 76.4279 74.1996 76.2069C76.446 75.1611 77.4774 77.5911 78.0588 79.6485C78.1716 80.0416 78.2411 80.446 78.2658 80.8545C78.2928 80.6025 78.3198 80.3595 78.3468 80.1075C78.4476 79.1895 78.5538 78.2715 78.6618 77.3463C78.8418 75.8307 79.011 74.3205 79.182 72.8031C79.209 72.5439 79.182 71.0751 79.398 70.9167C79.398 70.9167 81.8226 69.0951 88.2036 72.2703C92.8098 74.5563 93.4236 71.3703 94.8636 73.0695C95.2009 73.479 95.4333 73.9646 95.5404 74.4843C95.5733 74.6511 95.5944 74.8202 95.6034 74.9901C95.6068 75.012 95.6068 75.0345 95.6034 75.0567C95.625 75.4293 95.6322 75.8001 95.6412 76.1637C95.6754 79.6719 95.2902 83.3367 93.9132 86.5947C92.2392 90.5439 87.8094 94.4391 83.2032 92.5977C81.7632 92.0199 80.4726 91.0893 79.2918 90.1011" stroke="black" stroke-width="1.06337" stroke-miterlimit="10"/>
<path d="M92.39 83.0314C91.9319 82.8781 91.7109 82.3044 91.8963 81.7502C92.0817 81.1958 92.6035 80.8707 93.0618 81.024C93.5199 81.1772 93.7409 81.7509 93.5555 82.3053C93.3699 82.8597 92.8481 83.1848 92.39 83.0314Z" fill="black"/>
<path d="M85.5363 82.8119C85.0782 82.6587 84.8572 82.0851 85.0426 81.5307C85.2281 80.9763 85.7498 80.6512 86.2081 80.8046C86.6662 80.9579 86.8872 81.5316 86.7018 82.0858C86.5164 82.6402 85.9946 82.9653 85.5363 82.8119Z" fill="black"/>
<path d="M88.1563 83.9991C88.1563 83.9991 90.4369 85.2933 90.5755 83.9505C90.6187 83.5365 91.1767 79.4811 91.1767 79.4811C91.1767 79.4811 93.0199 77.5281 95.8441 78.9717" stroke="black" stroke-width="1.06337" stroke-miterlimit="10"/>
<path d="M88.6699 78.3447C88.6699 78.3447 84.9871 76.5051 82.5499 79.1565" stroke="black" stroke-width="1.06337" stroke-miterlimit="10"/>
<path d="M85.293 93.0493L84.87 95.2201C86.2038 96.4495 87.147 98.2117 86.8716 100.068C86.6268 101.713 85.2804 103.245 83.8998 104.107C81.5922 105.547 78.5232 105.433 76.0392 104.517C73.611 103.617 71.5104 101.909 69.9876 99.8245C69.2705 98.8169 68.7928 97.6589 68.5908 96.4387V96.4171" stroke="black" stroke-width="1.06337" stroke-miterlimit="10"/>
<path d="M84.87 95.22L84.0456 99.1404" stroke="black" stroke-width="1.06337" stroke-miterlimit="10"/>
<path d="M73.2115 85.2393L71.9659 93.5103C71.8431 94.3199 71.4338 95.0586 70.8124 95.592C70.1911 96.1255 69.3991 96.4183 68.5801 96.4173C64.7034 97.0455 60.8793 97.9624 57.1393 99.1605C42.5287 103.873 33.5359 117.034 30.9961 131.74C29.9395 137.898 29.8603 144.357 31.1869 150.48C31.9411 153.927 33.0319 157.799 35.5645 160.38C38.8531 163.746 43.9003 162.36 47.7865 160.839C59.8519 156.147 69.8869 147.798 78.5521 138.24C83.1853 133.128 89.1721 129.031 89.1721 129.031" stroke="black" stroke-width="1.06337" stroke-miterlimit="10"/>
<path d="M136.026 152.376C137.38 152.363 138.559 151.271 138.863 149.75C139.464 146.758 139.622 142.132 135.236 141.122C129.755 139.862 125.539 145.831 123.473 149.604C122.778 150.864 123.565 152.484 124.859 152.484L136.026 152.376Z" fill="white" fill-opacity="0.48"/>
<path d="M134.216 138.582C133.053 137.808 133.035 135.789 134.177 134.074C135.318 132.358 137.187 131.595 138.351 132.369C139.514 133.143 139.532 135.162 138.391 136.877C137.249 138.593 135.38 139.356 134.216 138.582Z" fill="white" fill-opacity="0.48"/>
<path d="M44.1409 165.441C44.2255 165.454 44.3209 165.466 44.4037 165.486H44.4361L57.2395 165.42L76.4509 165.321C76.5247 165.321 76.5967 165.321 76.6687 165.321C76.8114 165.317 76.9538 165.306 77.0953 165.288C75.7937 165.137 74.5872 164.531 73.6879 163.578C72.7888 162.625 72.2545 161.385 72.1795 160.077C72.1759 160.01 72.1759 159.942 72.1795 159.874V159.769C72.1847 158.489 72.6307 157.25 73.4425 156.26C74.2542 155.271 75.382 154.591 76.6363 154.335C76.7677 154.303 76.9117 154.283 77.0503 154.263C76.8325 154.243 76.6165 154.229 76.4059 154.229L60.1753 154.315L57.1873 154.328L53.1571 154.348C51.7772 154.474 50.4938 155.11 49.558 156.132C48.6223 157.154 48.1014 158.488 48.0973 159.874C48.0971 160.135 48.1169 160.397 48.1567 160.655C48.3486 161.974 49.0075 163.181 50.0137 164.055C51.0199 164.929 52.3064 165.414 53.6395 165.42H43.8871C44.4487 165.42 44.2921 165.42 44.1409 165.441Z" fill="white"/>
<path d="M70.1119 172.136C69.7461 172.504 69.3111 172.795 68.8319 172.994C68.3526 173.192 67.8387 173.293 67.3201 173.292H76.7485C78.5485 173.292 79.5313 172.853 80.2477 172.136C80.9839 171.397 81.3984 170.397 81.4015 169.353C81.4015 167.193 79.6303 165.422 76.7485 165.422H67.3201C68.0984 165.421 68.8596 165.651 69.5073 166.083C70.1549 166.515 70.6598 167.129 70.9577 167.848C71.2558 168.567 71.3337 169.359 71.1815 170.122C71.0294 170.885 70.6539 171.586 70.1029 172.136H70.1119Z" fill="white" fill-opacity="0.48"/>
<path d="M38.9735 159.973C38.9759 160.804 39.1694 161.624 39.5387 162.369C39.8026 162.932 40.1646 163.443 40.6079 163.879C41.3389 164.603 42.2569 165.11 43.2593 165.342C43.6726 165.438 44.0952 165.486 44.5193 165.486C44.4329 165.467 44.3393 165.454 44.2565 165.441C44.4077 165.427 44.5643 165.422 44.0009 165.422H53.7551C52.4211 165.416 51.1334 164.932 50.1265 164.057C49.1196 163.183 48.4602 161.975 48.2687 160.655C48.2289 160.397 48.2091 160.135 48.2093 159.874C48.2135 158.488 48.7346 157.154 49.6707 156.132C50.6069 155.109 51.8907 154.474 53.2709 154.348L48.0059 154.375L44.4887 154.395C43.0188 154.407 41.6138 155.001 40.5804 156.046C39.5468 157.091 38.9692 158.503 38.9735 159.973Z" fill="#000080"/>
<path d="M38.9735 159.971C38.9845 161.442 39.5778 162.849 40.6237 163.883C41.6695 164.917 43.0827 165.494 44.5535 165.488L76.5791 165.323C76.7933 165.323 77.0075 165.307 77.2235 165.285C75.8735 165.132 74.6266 164.489 73.7189 163.478C72.8113 162.467 72.3061 161.159 72.2989 159.8C72.2919 158.441 72.7834 157.127 73.6804 156.107C74.5775 155.087 75.8175 154.431 77.1659 154.264C76.9519 154.241 76.7368 154.23 76.5215 154.231L44.4959 154.397C43.0253 154.407 41.6186 154.999 40.5836 156.044C39.5486 157.089 38.9697 158.501 38.9735 159.971Z" stroke="black" stroke-width="1.06337" stroke-linecap="square" stroke-linejoin="round"/>
<path d="M48.2126 159.872C48.2155 161.343 48.8008 162.752 49.8407 163.792C50.8804 164.831 52.2898 165.417 53.7602 165.42H76.5464C76.7617 165.418 76.9768 165.406 77.1908 165.384C75.8419 165.224 74.5984 164.574 73.6961 163.559C72.7939 162.543 72.2957 161.231 72.2957 159.873C72.2957 158.515 72.7939 157.203 73.6961 156.188C74.5984 155.172 75.8419 154.523 77.1908 154.362C76.9766 154.343 76.7606 154.328 76.5464 154.328H53.7602C52.2905 154.331 50.882 154.917 49.8423 155.955C48.8028 156.994 48.2169 158.402 48.2126 159.872Z" stroke="black" stroke-width="1.06337" stroke-linecap="square" stroke-linejoin="round"/>
<path d="M81.4015 169.354C81.4017 169.871 81.3 170.382 81.1023 170.859C80.9045 171.336 80.6149 171.769 80.2495 172.134C79.5295 172.854 78.5521 173.291 76.7503 173.291H44.0029C44.5663 173.291 44.4133 173.28 44.2603 173.266C45.2184 173.153 46.1019 172.692 46.743 171.971C47.3842 171.25 47.7382 170.319 47.7382 169.354C47.7382 168.39 47.3842 167.458 46.743 166.737C46.1019 166.016 45.2184 165.556 44.2603 165.443C44.4133 165.429 44.5663 165.418 44.0029 165.418H76.7503C79.6339 165.42 81.4015 167.191 81.4015 169.354Z" stroke="black" stroke-width="1.06337" stroke-linecap="square" stroke-linejoin="round"/>
<path d="M71.267 169.354C71.2646 170.398 70.849 171.398 70.1114 172.135C69.3736 172.873 68.3736 173.289 67.3304 173.291H44.717C44.5658 173.291 44.4128 173.28 44.2598 173.266C45.2179 173.153 46.1013 172.692 46.7425 171.971C47.3837 171.25 47.7377 170.319 47.7377 169.354C47.7377 168.39 47.3837 167.458 46.7425 166.737C46.1013 166.016 45.2179 165.556 44.2598 165.443C44.4128 165.429 44.5658 165.418 44.717 165.418H67.3304C68.3735 165.421 69.3732 165.836 70.1108 166.574C70.8485 167.312 71.2641 168.311 71.267 169.354Z" stroke="black" stroke-width="1.06337" stroke-linecap="square" stroke-linejoin="round"/>
<path d="M107.924 139.32H118.026C118.488 139.319 118.94 139.184 119.327 138.931C119.713 138.678 120.018 138.318 120.204 137.895C120.275 137.737 120.306 137.564 120.293 137.391C120.28 137.219 120.223 137.052 120.128 136.907C120.033 136.763 119.903 136.644 119.75 136.563C119.597 136.482 119.427 136.441 119.253 136.444H108.515C109.02 137.295 108.763 138.478 107.924 139.32Z" fill="white" fill-opacity="0.48"/>
<path d="M101.392 138.279C101.392 138.555 101.502 138.818 101.697 139.013C101.891 139.208 102.155 139.317 102.43 139.318H107.924C108.763 138.477 109.02 137.295 108.514 136.438H103.663C103.202 136.438 102.75 136.572 102.363 136.824C101.976 137.075 101.671 137.434 101.484 137.856C101.425 137.99 101.394 138.134 101.392 138.279Z" fill="#000080"/>
<path d="M103.919 139.32C103.947 139.375 103.981 139.427 104.018 139.477C104.738 140.461 106.302 140.557 107.517 139.667C107.661 139.561 107.797 139.445 107.924 139.32C108.763 138.479 109.02 137.297 108.514 136.44C108.486 136.385 108.453 136.333 108.415 136.283C107.695 135.292 106.138 135.203 104.923 136.085C104.777 136.195 104.639 136.315 104.511 136.445C103.68 137.282 103.42 138.458 103.919 139.32Z" fill="white"/>
<path d="M98.8522 144.621C98.8542 144.897 98.9649 145.161 99.1606 145.355C99.356 145.549 99.6206 145.658 99.8962 145.658H110.496C109.985 144.798 110.241 143.624 111.081 142.778H101.124C100.661 142.778 100.209 142.913 99.8221 143.166C99.4351 143.419 99.13 143.779 98.944 144.202C98.8846 144.334 98.8535 144.477 98.8522 144.621Z" fill="#000080"/>
<path d="M110.496 145.658H115.484C115.946 145.658 116.398 145.524 116.785 145.272C117.172 145.02 117.477 144.661 117.664 144.239C117.723 144.107 117.754 143.964 117.756 143.82C117.756 143.684 117.729 143.549 117.677 143.423C117.625 143.297 117.549 143.183 117.453 143.086C117.356 142.99 117.242 142.913 117.116 142.861C116.99 142.809 116.855 142.783 116.719 142.783H111.081C110.241 143.624 109.98 144.797 110.496 145.658Z" fill="white" fill-opacity="0.48"/>
<path d="M110.497 145.658C110.52 145.714 110.551 145.767 110.588 145.816C111.308 146.806 112.867 146.896 114.08 146.012C114.227 145.903 114.366 145.782 114.494 145.652C115.328 144.812 115.583 143.638 115.085 142.772C115.056 142.717 115.023 142.664 114.986 142.614C114.266 141.629 112.702 141.534 111.488 142.425C111.344 142.53 111.208 142.646 111.082 142.772C110.241 143.624 109.98 144.797 110.497 145.658Z" fill="white"/>
<path d="M106.965 151.953H113.312C113.773 151.952 114.225 151.818 114.612 151.566C114.999 151.314 115.304 150.956 115.492 150.534C115.563 150.376 115.593 150.203 115.58 150.03C115.567 149.857 115.51 149.69 115.415 149.545C115.32 149.4 115.19 149.281 115.037 149.199C114.884 149.118 114.713 149.076 114.539 149.078H107.555C108.056 149.94 107.798 151.112 106.965 151.953Z" fill="#000080"/>
<path d="M96.6798 150.923C96.6812 151.196 96.7912 151.459 96.9854 151.652C97.1798 151.845 97.4428 151.953 97.7166 151.952H106.965C107.798 151.112 108.056 149.938 107.555 149.072H98.9514C98.4892 149.072 98.0368 149.207 97.6496 149.46C97.2626 149.713 96.9575 150.073 96.7716 150.496C96.7124 150.631 96.681 150.776 96.6798 150.923Z" fill="white" fill-opacity="0.48"/>
<path d="M102.96 151.953C102.989 152.008 103.022 152.061 103.059 152.111C103.779 153.101 105.336 153.191 106.551 152.307C106.697 152.197 106.835 152.077 106.963 151.947C107.797 151.107 108.054 149.933 107.554 149.067C107.526 149.012 107.494 148.959 107.456 148.909C106.736 147.924 105.172 147.84 103.957 148.72C103.813 148.825 103.677 148.941 103.55 149.067C102.712 149.919 102.456 151.099 102.96 151.953Z" fill="white"/>
<path d="M150.91 94.5669L150.752 94.6119L150.811 94.8423C150.849 94.7523 150.882 94.6603 150.91 94.5669Z" fill="#E8E9ED"/>
<path d="M122.741 108.968C120.371 108.272 119.126 105.406 119.96 102.566C120.793 99.727 123.39 97.9887 125.759 98.6842C128.129 99.3799 129.374 102.246 128.54 105.085C127.706 107.925 125.11 109.663 122.741 108.968Z" fill="white" fill-opacity="0.48"/>
</g>
</svg>
