<svg width="24" height="24" viewBox="0 0 24 24" fill="none" xmlns="http://www.w3.org/2000/svg">
<rect x="23.2" y="0.8" width="22.4" height="22.4" rx="11.2" transform="rotate(90 23.2 0.8)" stroke="#E6E6E6" stroke-width="1.6"/>
<path fill-rule="evenodd" clip-rule="evenodd" d="M17.6869 11.6467C17.7805 11.7404 17.8331 11.8675 17.8331 12C17.8331 12.1325 17.7805 12.2596 17.6869 12.3534L13.6869 16.3534C13.6411 16.4025 13.5859 16.4419 13.5246 16.4692C13.4632 16.4965 13.397 16.5112 13.3299 16.5124C13.2628 16.5136 13.1961 16.5012 13.1338 16.4761C13.0716 16.451 13.015 16.4135 12.9675 16.366C12.9201 16.3186 12.8826 16.262 12.8575 16.1998C12.8323 16.1375 12.82 16.0708 12.8212 16.0037C12.8223 15.9365 12.837 15.8703 12.8644 15.809C12.8917 15.7477 12.9311 15.6925 12.9802 15.6467L16.1269 12.5H6.66689C6.53428 12.5 6.4071 12.4473 6.31333 12.3536C6.21957 12.2598 6.16689 12.1326 6.16689 12C6.16689 11.8674 6.21957 11.7402 6.31333 11.6465C6.4071 11.5527 6.53428 11.5 6.66689 11.5H16.1269L12.9802 8.35335C12.9311 8.30758 12.8917 8.25238 12.8644 8.19105C12.837 8.12971 12.8223 8.0635 12.8212 7.99637C12.82 7.92923 12.8323 7.86255 12.8575 7.80029C12.8826 7.73803 12.9201 7.68147 12.9675 7.634C13.015 7.58652 13.0716 7.54909 13.1338 7.52394C13.1961 7.49879 13.2628 7.48644 13.3299 7.48763C13.397 7.48881 13.4632 7.50351 13.5246 7.53083C13.5859 7.55816 13.6411 7.59756 13.6869 7.64669L17.6869 11.6467Z" fill="#C0C0C0"/>
</svg>
