<?xml version="1.0" ?>
<svg
   viewBox="0 -256 1545 1545"
   width="100%"
   height="100%"
   xmlns="http://www.w3.org/2000/svg">
  <g
     transform="matrix(1,0,0,-1,0,1180)"
     id="g3039">
    <path
       d="m 1023,576 h 316 q -1,3 -2.5,8 -1.5,5 -2.5,8 l -212,496 H 414 L 202,592 q -1,-2 -2.5,-8 -1.5,-6 -2.5,-8 h 316 l 95,-192 h 320 z m 513,-30 V 64 Q 1536,38 1517,19 1498,0 1472,0 H 64 Q 38,0 19,19 0,38 0,64 v 482 q 0,62 25,123 l 238,552 q 10,25 36.5,42 26.5,17 52.5,17 h 832 q 26,0 52.5,-17 26.5,-17 36.5,-42 l 238,-552 q 25,-61 25,-123 z"
    />
  </g>
</svg>
