<svg width="69" height="84" viewBox="0 0 69 84" fill="none" xmlns="http://www.w3.org/2000/svg">
<path d="M54.6558 72.1637C49.591 74.7429 47.0884 79.9819 47.0884 79.9819C47.0884 79.9819 52.7974 81.0391 57.8622 78.4599C62.927 75.8807 65.4297 70.6417 65.4297 70.6417C65.4297 70.6417 59.7207 69.5845 54.6558 72.1637Z" fill="#F6CE40"/>
<path d="M40.9506 66.969C35.5844 68.8421 32.3985 73.6959 32.3985 73.6959C32.3985 73.6959 37.9129 75.5129 43.2791 73.6398C48.6453 71.7667 51.8312 66.9128 51.8312 66.9128C51.8312 66.9128 46.3168 65.0959 40.9506 66.969Z" fill="#F6CE40"/>
<path d="M29.4265 58.8635C24.4298 59.9918 21.0806 64.0122 21.0806 64.0122C21.0806 64.0122 25.8325 66.2033 30.8291 65.075C35.8258 63.9467 39.175 59.9263 39.175 59.9263C39.175 59.9263 34.4231 57.7352 29.4265 58.8635Z" fill="#F6CE40"/>
<path d="M18.7601 47.2051C13.6382 47.1315 9.44027 50.2554 9.44027 50.2554C9.44027 50.2554 13.5467 53.4987 18.6686 53.5723C23.7905 53.6459 27.9884 50.522 27.9884 50.522C27.9884 50.522 23.882 47.2787 18.7601 47.2051Z" fill="#F6CE40"/>
<path d="M10.6683 33.3412C5.64551 32.3356 0.948731 34.6425 0.948731 34.6425C0.948731 34.6425 4.39549 38.5796 9.41827 39.5851C14.4411 40.5906 19.1378 38.2838 19.1378 38.2838C19.1378 38.2838 15.6911 34.3467 10.6683 33.3412Z" fill="#F6CE40"/>
<path d="M8.98327 17.7462C5.99089 15.6581 2.26717 15.8253 2.26717 15.8253C2.26717 15.8253 3.39506 19.378 6.38744 21.4661C9.37982 23.5542 13.1035 23.387 13.1035 23.387C13.1035 23.387 11.9756 19.8343 8.98327 17.7462Z" fill="#F6CE40"/>
<path d="M57.5336 63.3205C60.1128 68.3852 65.3519 70.8879 65.3519 70.8879C65.3519 70.8879 66.4091 65.1789 63.8299 60.1142C61.2506 55.0494 56.0116 52.5468 56.0116 52.5468C56.0116 52.5468 54.9544 58.2557 57.5336 63.3205Z" fill="#F6CE40"/>
<path d="M45.0856 58.5513C46.9587 63.9174 51.8127 67.1033 51.8127 67.1033C51.8127 67.1033 53.6297 61.5889 51.7566 56.2228C49.8835 50.8566 45.0295 47.6707 45.0295 47.6707C45.0295 47.6707 43.2125 53.1851 45.0856 58.5513Z" fill="#F6CE40"/>
<path d="M33.9891 51.7493C35.1174 56.7459 39.1378 60.0951 39.1378 60.0951C39.1378 60.0951 41.3289 55.3432 40.2006 50.3467C39.0722 45.3501 35.0518 42.0009 35.0518 42.0009C35.0518 42.0009 32.8607 46.7527 33.9891 51.7493Z" fill="#F6CE40"/>
<path d="M24.862 41.358C24.7884 46.4798 27.9124 50.6777 27.9124 50.6777C27.9124 50.6777 31.1557 46.5713 31.2293 41.4495C31.3029 36.3276 28.1789 32.1298 28.1789 32.1298C28.1789 32.1298 24.9356 36.2361 24.862 41.358Z" fill="#F6CE40"/>
<path d="M17.7336 28.7035C16.7281 33.7262 19.035 38.4229 19.035 38.4229C19.035 38.4229 22.9721 34.9762 23.9777 29.9535C24.9832 24.9307 22.6763 20.234 22.6763 20.234C22.6763 20.234 18.7392 23.6807 17.7336 28.7035Z" fill="#F6CE40"/>
<path d="M14.9182 16.733C12.8301 19.7253 12.9973 23.449 12.9973 23.449C12.9973 23.449 16.55 22.3211 18.6381 19.3288C20.7262 16.3364 20.559 12.6127 20.559 12.6127C20.559 12.6127 17.0063 13.7406 14.9182 16.733Z" fill="#F6CE40"/>
<path d="M9.28124 7.47687C9.28124 11.1258 11.5493 14.0838 11.5493 14.0838C11.5493 14.0838 13.8174 11.1258 13.8174 7.47687C13.8174 3.828 11.5493 0.869995 11.5493 0.869995C11.5493 0.869995 9.28124 3.828 9.28124 7.47687Z" fill="#F6CE40"/>
<path fill-rule="evenodd" clip-rule="evenodd" d="M7.36483 22.2387C7.34827 21.7028 7.33993 21.1648 7.33993 20.6248C7.33993 19.425 7.38112 18.2349 7.46215 17.0556C4.80983 15.7977 2.10354 15.9193 2.10354 15.9193C2.10354 15.9193 3.23143 19.472 6.22381 21.5601C6.59571 21.8196 6.9789 22.0443 7.36483 22.2387ZM19.3804 53.6483C17.8087 51.7816 16.3677 49.8013 15.0715 47.7214C11.6811 48.5596 9.27603 50.3494 9.27603 50.3494C9.27603 50.3494 13.3824 53.5926 18.5043 53.6662C18.7996 53.6705 19.0919 53.6641 19.3804 53.6483ZM32.3273 64.673C30.0911 63.3342 27.9654 61.83 25.967 60.1772C22.8486 61.787 20.9165 64.1062 20.9165 64.1062C20.9165 64.1062 25.6684 66.2972 30.6651 65.1689C31.242 65.0386 31.7969 64.8698 32.3273 64.673ZM48.1055 70.844C44.8754 70.1697 41.7569 69.1916 38.781 67.941C34.6363 70.1312 32.2349 73.7899 32.2349 73.7899C32.2349 73.7899 37.7493 75.6069 43.1156 73.7338C45.0911 73.0442 46.7712 71.9507 48.1055 70.844ZM11.028 1.48828C10.2888 3.32574 9.65292 5.21585 9.12748 7.15143C9.24704 4.60057 10.422 2.44225 11.028 1.48828ZM64.8153 71.5597C62.7917 71.8024 60.7319 71.9272 58.6429 71.9272C57.5597 71.9272 56.4844 71.8937 55.418 71.8275C55.1076 71.9582 54.7983 72.1012 54.4913 72.2575C49.4265 74.8367 46.9238 80.0757 46.9238 80.0757C46.9238 80.0757 52.6328 81.1329 57.6976 78.5537C61.524 76.6051 63.888 73.1385 64.8153 71.5597ZM11.0882 39.9104C10.2109 37.7491 9.47656 35.5146 8.89705 33.2184C4.52334 32.8998 0.784058 34.7364 0.784058 34.7364C0.784058 34.7364 4.23082 38.6735 9.25359 39.679C9.87283 39.803 10.4871 39.8766 11.0882 39.9104Z" fill="url(#paint0_linear_212_2099)"/>
<defs>
<linearGradient id="paint0_linear_212_2099" x1="16.4804" y1="18.6788" x2="60.4095" y2="48.0071" gradientUnits="userSpaceOnUse">
<stop stop-color="#FFD22C"/>
<stop offset="1" stop-color="#DDAF0D"/>
</linearGradient>
</defs>
</svg>
