<svg width="41" height="39" viewBox="0 0 41 39" fill="none" xmlns="http://www.w3.org/2000/svg">
<path d="M38.9496 16.1034C37.2433 12.2971 31.4683 12.4284 28.0558 12.5596C28.4496 10.1971 29.1715 5.14402 28.2527 3.43777C27.5308 1.92839 26.0871 1.00964 24.3808 0.878393C22.6746 0.747143 21.0996 1.53464 20.1808 3.04402C16.4402 8.88464 12.8308 12.7565 11.5183 14.2003C11.5183 14.2003 11.4527 14.2659 11.3871 14.2659H3.51208C1.80583 14.2659 0.362083 15.7096 0.362083 17.4159V32.444C0.362083 34.2159 1.80583 35.594 3.51208 35.594H9.35271L9.68083 35.7909C9.68083 35.7909 9.74646 35.7909 9.74646 35.8565C11.5183 37.0378 15.1277 37.8909 20.3777 38.3503C21.2308 38.4159 21.8871 38.4159 22.6746 38.4159C27.1371 38.4159 31.4027 37.3003 34.2902 35.3315C39.8683 31.7221 41.4433 21.7471 38.9496 16.1034ZM3.38083 32.3784V17.3503C3.38083 17.219 3.44646 17.1534 3.57771 17.1534H7.12146V32.5753H3.57771C3.44646 32.6409 3.38083 32.5096 3.38083 32.3784ZM32.7152 32.9034C30.2215 34.544 26.6121 35.4628 22.6746 35.4628C21.9527 35.4628 21.3621 35.4628 20.7058 35.3971C14.2746 34.8065 12.109 33.8221 11.4527 33.3628L10.7965 32.9034C10.5996 32.7721 10.3371 32.6409 10.0746 32.6409V17.1534H11.3871C12.2402 17.1534 13.0933 16.8253 13.684 16.169C15.1277 14.7253 18.8683 10.6565 22.7402 4.55339C23.0027 4.02839 23.5277 3.76589 24.184 3.83152C24.6433 3.89714 25.2996 4.02839 25.6277 4.75027C25.8246 5.20964 25.9558 7.90027 25.0371 12.6909L24.7746 13.6753C24.6433 14.1346 24.7746 14.594 25.0371 14.9221C25.2996 15.2503 25.759 15.4471 26.2183 15.4471H28.0558C30.6152 15.3815 35.3402 15.2503 36.1933 17.2846C38.2277 21.7471 36.9152 30.1471 32.7152 32.9034Z" fill="white"/>
</svg>
